<?xml version="1.0" encoding="UTF-8"?><!DOCTYPE svg PUBLIC "-//W3C//DTD SVG 1.1//EN" "http://www.w3.org/Graphics/SVG/1.1/DTD/svg11.dtd"><svg xmlns="http://www.w3.org/2000/svg" xmlns:xlink="http://www.w3.org/1999/xlink" version="1.1" id="Layer_1" x="0px" y="0px" width="24px" height="24px" viewBox="0 0 24 24" xml:space="preserve"><path d="M19.7 23.5H4.3c-2.1 0-3.8-1.7-3.8-3.8V4.3C.5 2.2 2.2.5 4.3.5h15.3c2.1 0 3.8 1.7 3.8 3.8v15.3c.1 2.2-1.6 3.9-3.7 3.9zM4.3 1.5c-1.6 0-2.8 1.3-2.8 2.8v15.3c0 1.6 1.3 2.8 2.8 2.8h15.3c1.6 0 2.8-1.3 2.8-2.8V4.3c0-1.6-1.3-2.8-2.8-2.8H4.3z"/><g id="LinkedIn_2_"><path d="M8.5 19.7H5.4c-.3 0-.5-.2-.5-.5V9.4c0-.3.2-.5.5-.5h3.1c.3 0 .5.2.5.5v9.8c0 .3-.2.5-.5.5zm-2.6-1H8V9.9H5.9v8.8z"/><path d="M19 19.7h-3.5c-.3 0-.5-.2-.5-.5V15c0-1.1-.4-1.7-1.3-1.7-.7 0-1 .5-1.2.9v5c0 .3-.2.5-.5.5H8.5c-.1 0-.3-.1-.4-.1s-.1-.3-.1-.4V9.5c0-.1 0-.3.1-.4.1-.1.3-.2.4-.2H12c.3 0 .5.2.5.5v.2c.6-.4 1.5-.8 2.6-.8 2.1 0 4.4 1.3 4.4 4.9v5.4c0 .4-.3.6-.5.6zm-3-1h2.5v-4.9c0-2.5-1.2-3.9-3.4-3.9-1.6 0-2.5.8-2.6 1.3-.1.2-.3.4-.6.3-.2 0-.4-.2-.4-.5v-1H9v8.8h2.5v-4c0-.3 0-.6.1-.9.4-1 1.2-1.5 2.1-1.5 1.4 0 2.3 1 2.3 2.7v3.6z"/><path d="M6.9 8.7c-1.4 0-2.4-.9-2.4-2.2 0-1.3 1-2.2 2.4-2.2s2.3.9 2.4 2.2c0 1.3-1 2.2-2.4 2.2zm0-3.4c-.8 0-1.4.5-1.4 1.2S6 7.7 6.8 7.7s1.4-.5 1.4-1.2c.1-.7-.5-1.2-1.3-1.2z"/></g><metadata><rdf:RDF xmlns:rdf="http://www.w3.org/1999/02/22-rdf-syntax-ns#" xmlns:rdfs="http://www.w3.org/2000/01/rdf-schema#" xmlns:dc="http://purl.org/dc/elements/1.1/"><rdf:Description about="https://iconscout.com/legal#licenses" dc:title="linked,in" dc:description="linked,in" dc:publisher="Iconscout" dc:date="2018-01-30" dc:format="image/svg+xml" dc:language="en"><dc:creator><rdf:Bag><rdf:li>Roundicons.com</rdf:li></rdf:Bag></dc:creator></rdf:Description></rdf:RDF></metadata></svg>