<?xml version="1.0" encoding="utf-8"?>
<!-- Svg Vector Icons : http://www.onlinewebfonts.com/icon -->
<!DOCTYPE svg PUBLIC "-//W3C//DTD SVG 1.1//EN" "http://www.w3.org/Graphics/SVG/1.1/DTD/svg11.dtd">
<svg version="1.1" xmlns="http://www.w3.org/2000/svg" xmlns:xlink="http://www.w3.org/1999/xlink" x="0px" y="0px" viewBox="0 0 1000 1000" enable-background="new 0 0 1000 1000" xml:space="preserve">
<metadata> Svg Vector Icons : http://www.onlinewebfonts.com/icon </metadata>
<g><g transform="matrix(1 0 0 -1 0 1008)"><path d="M658.5,249.4v-76.8H269.6v76.8H658.5z M192.8,94.8h543.5v319.9h76.8V18H116v397.6h76.8V94.8z M660.4,354.4l-3.9-77.8l-386,21.4l4.9,76.8L660.4,354.4z M884,678.1l-63.2-42.8L604,954.2l63.2,43.8L884,678.1z M791.7,612l-51.5-58.3L449.4,807.4l51.5,58.3L791.7,612z M722.6,529.4l-35-69l-344.2,176l35,69L722.6,529.4z M680.8,445.8l-18.5-74.9l-375.3,90.4l18.5,75.8L680.8,445.8z"/></g></g>
</svg>